<?xml version="1.0" encoding="utf-8"?>
<!-- Generator: Adobe Illustrator 22.0.1, SVG Export Plug-In . SVG Version: 6.00 Build 0)  -->
<svg version="1.1" id="Layer_1" xmlns="http://www.w3.org/2000/svg" xmlns:xlink="http://www.w3.org/1999/xlink" x="0px" y="0px"
	 viewBox="0 0 1857 2025.3" style="enable-background:new 0 0 1857 2025.3;" xml:space="preserve">
<style type="text/css">
	.st0{fill:#A0A0A0;}
	.st1{fill:#201600;}
	.st2{fill:#FFFFFF;}
</style>
<g>
	<polygon class="st0" points="1050,1252.2 535,1549.5 535,958.6 1050,661.3 	"/>
	<path class="st1" d="M535,1569.5c-3.5,0-6.9-0.9-10-2.7c-6.2-3.6-10-10.2-10-17.3v-591c0-7.1,3.8-13.7,10-17.3l515-297.3
		c6.2-3.6,13.8-3.6,20,0c6.2,3.6,10,10.2,10,17.3v591c0,7.1-3.8,13.7-10,17.3l-515,297.3C541.9,1568.7,538.4,1569.5,535,1569.5z
		 M555,970.1v544.8l475-274.2V695.9L555,970.1z M1050,1252.2L1050,1252.2L1050,1252.2z"/>
</g>
<g>
	<polygon class="st2" points="535,1549.5 20,1252.2 20,661.3 535,958.6 	"/>
	<path class="st1" d="M535,1569.5c-3.5,0-6.9-0.9-10-2.7L10,1269.5c-6.2-3.6-10-10.2-10-17.3v-591c0-7.1,3.8-13.7,10-17.3
		c6.2-3.6,13.8-3.6,20,0l515,297.3c6.2,3.6,10,10.2,10,17.3v591c0,7.1-3.8,13.7-10,17.3C541.9,1568.7,538.4,1569.5,535,1569.5z
		 M40,1240.7l475,274.2V970.1L40,695.9V1240.7z"/>
</g>
<g>
	<polygon class="st2" points="536.6,957.7 21.6,660.3 533.4,364.9 1048.4,662.2 	"/>
	<path class="st1" d="M536.6,977.7c-3.5,0-6.9-0.9-10-2.7l-515-297.3c-6.2-3.6-10-10.2-10-17.3s3.8-13.7,10-17.3l511.8-295.5
		c6.2-3.6,13.8-3.6,20,0l515,297.3c6.2,3.6,10,10.2,10,17.3s-3.8,13.7-10,17.3L546.6,975C543.5,976.8,540.1,977.7,536.6,977.7z
		 M61.6,660.3l475,274.2l471.8-272.4L533.4,388L61.6,660.3z"/>
</g>
<g>
	<polygon class="st2" points="1837,1707.9 1322,2005.3 1322,1414.3 1837,1117 	"/>
	<path class="st1" d="M1322,2025.3c-3.5,0-6.9-0.9-10-2.7c-6.2-3.6-10-10.2-10-17.3v-591c0-7.1,3.8-13.7,10-17.3l515-297.3
		c6.2-3.6,13.8-3.6,20,0c6.2,3.6,10,10.2,10,17.3v591c0,7.1-3.8,13.7-10,17.3l-515,297.3C1328.9,2024.4,1325.5,2025.3,1322,2025.3z
		 M1342,1425.9v544.8l475-274.2v-544.8L1342,1425.9z M1837,1707.9L1837,1707.9L1837,1707.9z"/>
</g>
<g>
	<polygon class="st2" points="1322,2005.3 807,1707.9 807,1117 1322,1414.3 	"/>
	<path class="st1" d="M1322,2025.3c-3.5,0-6.9-0.9-10-2.7l-515-297.3c-6.2-3.6-10-10.2-10-17.3v-591c0-7.1,3.8-13.7,10-17.3
		c6.2-3.6,13.8-3.6,20,0l515,297.3c6.2,3.6,10,10.2,10,17.3v591c0,7.1-3.8,13.7-10,17.3C1328.9,2024.4,1325.5,2025.3,1322,2025.3z
		 M827,1696.4l475,274.2v-544.8l-475-274.2V1696.4z"/>
</g>
<g>
	<polygon class="st2" points="1325.2,1409.1 810.3,1111.8 1322,816.3 1837,1113.7 	"/>
	<path class="st1" d="M1325.2,1429.1c-3.5,0-6.9-0.9-10-2.7l-515-297.3c-6.2-3.6-10-10.2-10-17.3s3.8-13.7,10-17.3L1312,799
		c6.2-3.6,13.8-3.6,20,0l515,297.3c6.2,3.6,10,10.2,10,17.3s-3.8,13.7-10,17.3l-511.8,295.5
		C1332.2,1428.2,1328.7,1429.1,1325.2,1429.1z M850.3,1111.8l475,274.2l471.8-272.4l-475-274.2L850.3,1111.8z"/>
</g>
<g>
	<polygon class="st2" points="1487.2,913.1 972.2,1210.4 972.2,619.5 1487.2,322.1 	"/>
	<path class="st1" d="M972.2,1230.4c-3.5,0-6.9-0.9-10-2.7c-6.2-3.6-10-10.2-10-17.3v-591c0-7.1,3.8-13.7,10-17.3l515-297.3
		c6.2-3.6,13.8-3.6,20,0c6.2,3.6,10,10.2,10,17.3v591c0,7.1-3.8,13.7-10,17.3l-515,297.3C979.1,1229.5,975.6,1230.4,972.2,1230.4z
		 M992.2,631v544.8l475-274.2V356.8L992.2,631z M1487.2,913.1L1487.2,913.1L1487.2,913.1z"/>
</g>
<g>
	<polygon class="st2" points="975.4,1204.7 460.4,907.4 460.4,316.4 975.4,613.7 	"/>
	<path class="st1" d="M975.4,1224.7c-3.5,0-6.9-0.9-10-2.7l-515-297.3c-6.2-3.6-10-10.2-10-17.3v-591c0-7.1,3.8-13.7,10-17.3
		c6.2-3.6,13.8-3.6,20,0l515,297.3c6.2,3.6,10,10.2,10,17.3v591c0,7.1-3.8,13.7-10,17.3C982.3,1223.8,978.8,1224.7,975.4,1224.7z
		 M480.4,895.8l475,274.2V625.3L480.4,351V895.8z"/>
</g>
<g>
	<polygon class="st2" points="975.4,612.8 460.4,315.5 972.2,20 1487.2,317.3 	"/>
	<path class="st1" d="M975.4,632.8c-3.5,0-6.9-0.9-10-2.7l-515-297.3c-6.2-3.6-10-10.2-10-17.3s3.8-13.7,10-17.3L962.2,2.7
		c6.2-3.6,13.8-3.6,20,0l515,297.3c6.2,3.6,10,10.2,10,17.3s-3.8,13.7-10,17.3L985.4,630.1C982.3,631.9,978.8,632.8,975.4,632.8z
		 M500.4,315.5l475,274.2l471.8-272.4l-475-274.2L500.4,315.5z"/>
</g>
<g>
	<circle class="st1" cx="1475.7" cy="1511" r="17.6"/>
</g>
<g>
	<circle class="st1" cx="1562.1" cy="1652.9" r="17.6"/>
</g>
<g>
	<circle class="st1" cx="1633.8" cy="1534.4" r="17.6"/>
</g>
<g>
	<circle class="st1" cx="1304.4" cy="1250.5" r="17.6"/>
</g>
<g>
	<circle class="st1" cx="1454.9" cy="1204.7" r="17.6"/>
</g>
<g>
	<circle class="st1" cx="1339.6" cy="1169.5" r="17.6"/>
</g>
<g>
	<circle class="st1" cx="900.2" cy="396.8" r="17.6"/>
</g>
<g>
	<circle class="st1" cx="1050.6" cy="350.9" r="17.6"/>
</g>
<g>
	<circle class="st1" cx="1033" cy="456.8" r="17.6"/>
</g>
<g>
	<circle class="st1" cx="717.9" cy="872.4" r="17.6"/>
</g>
<g>
	<circle class="st1" cx="855.5" cy="692" r="17.6"/>
</g>
<g>
	<circle class="st1" cx="952.9" cy="1647.7" r="17.6"/>
</g>
<g>
	<circle class="st1" cx="1158.3" cy="1810.1" r="17.6"/>
</g>
<g>
	<circle class="st1" cx="1229.8" cy="1548.7" r="17.6"/>
</g>
<g>
	<circle class="st1" cx="370.1" cy="1187.1" r="17.6"/>
</g>
<g>
	<circle class="st1" cx="442.8" cy="1359" r="17.6"/>
</g>
<g>
	<circle class="st1" cx="239.3" cy="1233" r="17.6"/>
</g>
<g>
	<circle class="st1" cx="1286.9" cy="854.8" r="17.6"/>
</g>
<g>
	<circle class="st1" cx="1123.1" cy="1002.9" r="17.6"/>
</g>
<g>
	<circle class="st1" cx="1158.3" cy="837.2" r="17.6"/>
</g>
<g>
	<circle class="st1" cx="1374.8" cy="783.9" r="17.6"/>
</g>
<g>
	<circle class="st1" cx="1286.9" cy="766.3" r="17.6"/>
</g>
<g>
	<circle class="st1" cx="1286.9" cy="333.3" r="17.6"/>
</g>
<g>
	<circle class="st1" cx="837.9" cy="949.1" r="17.6"/>
</g>
<g>
	<circle class="st1" cx="935.3" cy="315.7" r="17.6"/>
</g>
</svg>
